<?xml version="1.0" standalone="no"?>
<!DOCTYPE svg PUBLIC "-//W3C//DTD SVG 20010904//EN"
 "http://www.w3.org/TR/2001/REC-SVG-20010904/DTD/svg10.dtd">
<svg version="1.0" xmlns="http://www.w3.org/2000/svg"
 width="550.000000pt" height="550.000000pt" viewBox="0 0 550.000000 550.000000"
 preserveAspectRatio="xMidYMid meet">

<g transform="translate(0.000000,550.000000) scale(0.100000,-0.100000)"
fill="#000000" stroke="none">
<path d="M3237 4987 c6 -37 -16 -63 -57 -69 -14 -2 -24 -9 -22 -16 1 -6 -3
-12 -8 -12 -7 0 -7 -6 0 -20 16 -30 3 -24 -30 14 -20 22 -43 36 -68 41 -20 4
-58 22 -85 41 -45 32 -77 43 -77 26 0 -4 5 -13 11 -19 21 -21 -29 -36 -105
-31 -53 3 -89 13 -138 36 -89 43 -138 44 -84 1 28 -22 56 -97 56 -150 0 -51
-34 -140 -65 -169 -18 -17 -30 -21 -50 -16 -18 5 -25 12 -21 21 3 8 1 15 -4
15 -6 0 -10 -5 -10 -10 0 -18 -64 -50 -99 -50 -25 0 -32 3 -27 15 3 8 1 15 -4
15 -6 0 -10 -4 -10 -9 0 -6 -15 -22 -34 -36 -38 -29 -96 -42 -96 -22 0 7 -9
-2 -20 -20 -22 -37 -73 -67 -99 -58 -14 4 -19 1 -17 -12 0 -10 -4 -17 -11 -16
-7 2 -29 -8 -49 -22 -44 -30 -51 -31 -57 -7 -3 9 -5 1 -6 -19 -1 -45 -61 -110
-84 -90 -12 9 -13 7 -10 -13 5 -25 -26 -94 -52 -116 -14 -12 -18 -12 -26 1 -6
10 -9 2 -9 -26 l-1 -40 -44 48 c-25 27 -45 52 -45 55 0 4 31 43 68 87 37 44
66 82 65 85 -3 7 148 160 159 160 4 0 8 4 8 10 0 5 -19 3 -42 -6 -37 -13 -43
-13 -59 2 -58 53 -16 195 67 230 33 14 72 59 61 70 -3 3 -27 -5 -54 -19 -26
-14 -93 -47 -147 -73 -55 -27 -121 -62 -147 -79 -44 -28 -333 -329 -376 -391
-23 -34 -62 -149 -98 -289 -15 -55 -44 -154 -65 -220 -71 -220 -69 -208 -60
-435 10 -238 8 -212 18 -206 4 2 32 -57 61 -132 30 -76 66 -159 80 -187 18
-36 25 -67 26 -112 1 -75 16 -96 63 -91 29 4 37 0 52 -25 20 -32 31 -24 32 24
1 23 -9 41 -41 73 l-42 42 -2 150 c-3 146 8 469 18 510 4 20 62 84 74 84 3 0
13 -17 22 -38 l16 -37 -1 55 c0 30 5 97 11 148 10 77 21 112 62 198 27 57 54
104 58 104 45 0 63 -90 53 -260 -3 -53 5 -138 15 -162 5 -14 2 -18 -14 -18
-25 0 -28 -15 -5 -24 22 -8 26 -8 19 4 -9 15 1 12 37 -10 40 -24 117 -26 179
-5 24 9 49 13 55 11 7 -3 15 0 18 7 3 9 5 9 5 -1 1 -7 -10 -17 -24 -22 -14 -5
-25 -12 -25 -16 0 -3 6 -4 14 -1 8 3 22 -1 33 -9 17 -14 17 -15 -2 -7 -20 9
-47 8 -100 -2 l-30 -6 25 16 c18 12 19 14 5 10 -54 -19 -104 -17 -140 4 -54
32 -62 24 -20 -21 28 -30 57 -77 80 -125 8 -18 20 -33 26 -33 5 0 8 -4 4 -9
-10 -17 60 -81 89 -81 14 0 26 -5 26 -11 0 -5 5 -7 10 -4 6 3 10 0 10 -8 0
-16 56 -43 82 -39 9 2 19 -2 23 -8 3 -6 11 -8 16 -4 6 3 18 0 27 -8 9 -8 43
-28 76 -43 61 -31 126 -83 126 -103 0 -6 9 -14 21 -17 14 -5 17 -10 10 -19
-13 -16 66 -14 97 3 22 12 74 -13 318 -150 l41 -23 99 60 c54 34 149 89 209
123 61 34 149 91 196 126 l87 63 6 109 c3 59 10 164 16 233 13 158 13 316 0
340 -5 10 -45 35 -89 55 -72 34 -79 40 -70 57 8 15 6 24 -8 40 -17 19 -17 20
10 40 15 11 27 26 27 35 0 28 89 -90 129 -171 50 -100 77 -187 137 -436 43
-177 48 -209 52 -347 4 -142 3 -153 -14 -159 -40 -15 -83 -84 -85 -136 0 -15
-20 -40 -59 -73 -46 -39 -61 -60 -71 -95 -6 -25 -15 -49 -20 -54 -4 -4 -30 12
-57 38 -27 25 -53 46 -58 46 -5 -1 2 -9 14 -20 22 -18 22 -21 8 -36 -15 -14
-16 -13 -16 8 -1 22 -1 22 -15 4 -8 -11 -15 -31 -15 -45 1 -23 2 -24 11 -8 6
9 14 15 19 12 16 -10 -3 -47 -41 -77 -41 -33 -43 -48 -6 -44 45 5 59 17 52 45
-6 25 -6 25 14 7 22 -20 28 -32 11 -21 -5 3 -10 -1 -10 -9 0 -13 4 -13 36 0
20 8 41 13 47 10 7 -2 4 -5 -5 -5 -10 -1 -18 -8 -18 -17 0 -8 -4 -13 -8 -10
-12 7 -52 -22 -52 -37 0 -7 5 -4 11 5 10 18 33 19 94 3 26 -7 28 -6 17 7 -8
10 -21 14 -35 10 -21 -5 -21 -4 -5 14 13 15 27 19 59 16 l42 -4 -24 -19 -24
-19 25 8 c14 5 31 7 38 5 7 -3 11 -1 10 4 -2 4 0 9 5 11 16 5 24 1 24 -13 0
-8 -4 -12 -9 -9 -4 3 -8 0 -8 -5 0 -17 27 -13 34 5 3 8 10 12 16 9 6 -3 7 1 4
9 -4 11 0 16 10 16 17 0 20 -9 8 -25 -12 -17 -89 -64 -116 -71 -15 -3 -29 -10
-32 -15 -3 -5 -13 -9 -24 -9 -10 0 -20 -7 -23 -15 -8 -19 -70 -14 -95 8 -10 9
-21 17 -25 17 -3 0 -28 14 -56 32 -50 30 -52 31 -71 13 -25 -22 -29 -85 -5
-65 12 10 15 10 15 0 0 -10 3 -10 15 0 8 7 15 9 15 5 0 -4 8 -1 17 6 9 8 14 9
10 3 -12 -20 -105 -64 -122 -58 -14 6 -14 9 4 28 10 11 21 35 23 51 1 17 10
33 18 37 11 5 8 7 -8 7 -14 1 -21 5 -16 12 4 7 19 8 37 5 30 -6 30 -6 12 10
-11 8 -15 13 -10 10 6 -2 17 -1 25 5 12 7 11 9 -6 9 -12 0 -33 -9 -48 -21 -21
-16 -26 -29 -26 -64 0 -26 -6 -47 -15 -55 -9 -7 -14 -27 -14 -49 1 -23 3 -28
6 -13 7 33 21 27 32 -15 8 -27 7 -41 -2 -52 -9 -12 -9 -13 1 -7 6 4 12 3 12
-3 0 -5 -5 -13 -11 -16 -6 -4 -8 -13 -5 -20 3 -8 -2 -19 -10 -26 -12 -10 -13
-9 -8 6 5 13 4 16 -5 10 -10 -6 -11 -3 -2 14 17 30 6 42 -26 30 -38 -14 -40
-3 -3 20 18 10 40 17 48 13 10 -3 13 -1 8 6 -4 7 -12 12 -18 12 -21 0 -75 -49
-88 -79 -7 -17 -20 -33 -30 -36 -10 -3 -20 -15 -23 -25 -3 -11 -13 -20 -24
-20 -13 1 -7 11 27 42 25 23 40 38 33 35 -16 -10 -24 6 -12 23 6 10 9 11 9 3
0 -7 4 -13 8 -13 5 0 6 14 4 31 -3 22 -1 30 7 25 6 -4 11 -3 11 3 0 5 -4 12
-10 16 -5 3 -6 13 -3 22 5 13 2 15 -15 11 -12 -3 -26 0 -32 7 -9 11 -5 14 17
17 26 3 25 4 -9 9 -20 3 -35 2 -33 -1 2 -4 -5 -14 -15 -23 -13 -11 -17 -23
-13 -34 6 -16 8 -15 13 5 7 31 20 31 43 0 17 -22 17 -30 6 -69 -7 -24 -23 -55
-36 -70 -13 -14 -23 -30 -23 -36 0 -6 -9 -13 -20 -16 -11 -3 -23 -13 -27 -23
-10 -26 -55 -63 -76 -64 -10 0 -28 5 -40 11 -18 10 -24 8 -43 -15 -15 -17 -33
-26 -52 -26 -25 0 -92 -39 -69 -40 5 0 15 7 24 16 9 8 28 14 44 12 20 -2 37 6
59 27 l31 30 -10 -28 c-6 -16 -8 -33 -5 -39 4 -7 -8 -8 -35 -4 -36 5 -48 1
-83 -24 -40 -29 -40 -30 -14 -30 16 0 25 4 21 10 -4 7 3 9 19 6 14 -3 30 2 37
10 16 20 30 18 69 -11 19 -14 46 -25 61 -25 15 0 30 -4 34 -10 3 -5 12 -7 19
-4 8 3 17 0 21 -6 4 -7 13 -4 26 11 22 26 22 26 -11 31 -14 1 -31 9 -39 16
-14 14 -49 12 -83 -3 -26 -11 -34 20 -11 43 25 27 59 43 75 37 8 -3 23 4 34
16 l19 22 -25 -13 c-23 -12 -24 -12 -12 3 7 9 28 19 45 23 18 3 35 12 39 18 5
8 11 7 20 -2 9 -9 9 -12 -2 -13 -8 -1 -4 -4 10 -8 25 -7 25 -7 -16 -37 -23
-16 -50 -35 -60 -42 -11 -7 1 -3 24 9 25 11 51 17 60 14 10 -4 31 -9 47 -12
17 -3 32 -8 35 -12 3 -5 17 -3 33 4 15 6 25 14 21 18 -4 3 -14 2 -24 -3 -17
-9 -87 4 -103 20 -12 11 30 39 51 34 9 -2 41 4 70 14 51 17 65 31 98 100 1 2
14 0 29 -4 23 -6 26 -10 21 -35 -13 -70 -24 -87 -63 -100 -19 -6 -32 -13 -30
-15 3 -3 32 4 66 16 33 11 64 20 68 20 16 -1 -31 -30 -48 -30 -14 0 -29 -19
-29 -37 0 -3 16 -3 35 0 l36 6 -23 -31 c-12 -18 -15 -27 -7 -22 7 5 25 9 39 9
16 0 29 8 34 22 9 20 164 128 172 120 3 -2 -2 -10 -11 -17 -8 -7 -15 -19 -15
-27 0 -7 -6 -16 -14 -19 -8 -3 -12 -13 -8 -26 3 -13 1 -19 -5 -15 -6 4 -10 -1
-9 -11 2 -26 -98 -71 -143 -65 -20 2 -49 5 -66 7 -18 1 -29 7 -27 15 1 7 -2
10 -7 6 -6 -3 -16 3 -22 13 -10 16 -18 18 -47 11 -20 -4 -40 -5 -45 -2 -6 4
-7 1 -2 -7 6 -10 4 -12 -9 -7 -10 4 -15 3 -11 -3 3 -6 2 -10 -4 -10 -6 0 -17
-13 -26 -30 -9 -18 -23 -30 -35 -30 -11 0 -20 -4 -20 -9 0 -10 -21 -20 -67
-31 -18 -4 -31 -4 -28 0 3 4 -8 10 -23 13 -67 14 -89 21 -114 38 -31 22 -94
27 -126 10 -13 -7 -30 -11 -40 -9 -9 1 -35 -6 -57 -16 -48 -24 -88 -30 -82
-13 3 7 9 11 14 10 5 -1 10 7 10 18 1 13 -2 17 -10 12 -12 -8 -17 -9 -38 -12
-5 0 -7 -5 -4 -11 3 -6 -4 -10 -17 -10 -15 0 -19 3 -11 8 9 6 6 16 -12 36 -14
16 -25 33 -25 38 0 12 32 9 60 -7 28 -16 70 -20 70 -6 0 5 -13 11 -30 15 -24
4 -30 11 -30 31 0 23 -18 32 -53 26 -10 -2 1 39 13 53 5 5 17 5 27 1 16 -7 15
-9 -7 -15 l-25 -8 28 -1 c40 -1 87 -31 88 -56 1 -11 2 -29 3 -40 1 -13 9 -21
25 -23 16 -3 21 0 16 8 -4 7 -2 16 5 20 8 5 3 9 -13 14 -16 4 -27 14 -29 28
-4 25 -84 86 -115 87 -12 1 -25 6 -28 11 -4 6 -10 8 -15 5 -5 -3 -12 0 -16 6
-4 8 -3 9 4 5 7 -4 12 -3 12 3 0 12 -19 25 -26 18 -3 -3 -7 -11 -8 -19 -7 -33
-20 -48 -41 -48 -13 0 -26 -7 -29 -16 -9 -24 -7 -31 5 -12 5 10 15 18 20 18 6
0 7 -4 4 -10 -3 -5 0 -7 8 -4 23 8 30 -27 10 -48 -14 -14 -24 -16 -48 -9 -17
5 -22 10 -13 10 9 1 20 6 23 11 4 6 1 9 -7 8 -7 -2 -13 6 -13 17 -1 40 -15 46
-41 17 l-25 -27 22 33 c25 36 59 60 98 72 17 6 20 9 8 9 -26 1 -95 -36 -107
-58 -8 -16 -18 -19 -48 -15 -34 4 -32 0 8 -12 12 -4 12 -7 1 -13 -16 -10 -51
-2 -51 11 0 6 -7 4 -17 -3 -15 -13 -15 -12 -5 8 7 12 17 23 23 25 9 3 9 13 4
34 l-9 29 -4 -32 c-4 -42 -28 -50 -45 -15 -7 15 -12 34 -10 43 3 12 -2 16 -20
14 -13 -2 -30 2 -38 7 -11 8 -11 9 3 5 15 -5 15 -4 0 25 -9 17 -34 47 -54 66
-21 19 -38 43 -38 53 0 12 -7 19 -19 19 -10 0 -24 7 -31 15 -7 8 -17 12 -23 8
-5 -3 -7 -1 -4 4 8 12 -29 63 -46 63 -8 0 -7 -4 1 -12 29 -29 -7 -36 -63 -12
-17 7 -15 2 8 -25 15 -18 27 -36 27 -41 0 -22 -14 -40 -32 -40 -11 0 -16 -5
-13 -10 4 -6 15 -8 25 -5 10 3 21 1 25 -4 4 -7 -1 -8 -11 -4 -14 5 -16 3 -9
-13 17 -41 17 -64 1 -70 -9 -3 -13 -10 -10 -15 3 -5 10 -7 15 -3 5 3 25 -6 44
-20 18 -14 38 -26 44 -26 15 0 14 -47 -1 -53 -12 -5 0 -7 49 -8 22 0 61 -35
50 -45 -3 -3 -10 4 -17 15 -6 12 -15 21 -21 21 -5 0 0 -13 12 -30 22 -29 22
-30 3 -51 l-19 -22 25 16 c25 16 28 15 63 -9 20 -13 37 -29 37 -34 0 -5 7 -7
15 -4 26 10 103 -6 130 -28 15 -12 40 -22 57 -23 36 -3 71 -33 63 -54 -5 -12
-3 -13 5 -5 17 17 58 5 80 -24 11 -13 20 -19 20 -12 0 23 101 6 122 -20 10
-12 18 -18 18 -12 0 18 48 19 84 1 28 -13 44 -15 68 -8 39 11 78 2 78 -19 0
-13 3 -13 19 2 27 25 121 13 128 -15 3 -10 9 -19 14 -19 5 0 6 6 3 14 -4 9 10
19 42 30 58 20 91 20 127 2 15 -8 27 -10 27 -5 0 16 92 50 130 48 19 -2 43
-10 54 -18 17 -15 18 -14 15 3 -3 14 7 26 36 43 43 25 79 29 119 13 15 -5 26
-6 26 -1 0 5 -5 11 -12 13 -7 3 -8 10 -4 17 13 20 127 71 160 71 23 0 27 3 23
20 -4 14 4 24 27 38 17 10 33 19 36 20 3 0 22 8 42 16 27 12 44 13 62 6 24 -9
25 -8 14 9 -6 10 -8 26 -5 35 8 21 93 75 130 83 18 4 24 9 18 17 -22 28 45
100 106 112 23 4 29 10 26 24 -3 10 8 32 27 54 18 20 28 36 24 36 -5 0 -24
-17 -43 -37 -18 -21 -27 -29 -20 -18 29 45 53 65 70 60 10 -3 20 -1 23 4 4 6
13 8 21 4 8 -3 15 0 15 6 0 6 -6 11 -14 11 -21 0 -15 59 9 84 11 12 28 32 37
45 12 17 27 24 47 24 24 0 27 3 16 11 -16 12 -27 96 -13 96 9 0 42 66 43 87 0
17 36 53 52 53 12 0 14 14 12 63 -3 66 14 117 39 117 11 0 12 3 3 14 -22 26
14 151 46 163 14 6 13 7 -4 14 -24 9 -48 86 -40 129 4 19 2 30 -5 30 -7 0 -5
7 4 18 9 9 19 26 22 38 4 12 16 26 29 32 19 10 19 11 3 9 -26 -3 -55 69 -55
138 -1 44 2 52 27 68 l27 17 -25 -5 c-28 -7 -62 24 -82 73 -16 40 -17 180 -1
200 17 22 16 37 0 23 -15 -12 -36 7 -72 64 -26 41 -29 51 -29 119 0 46 -2 55
-9 38 -5 -11 -16 -23 -24 -26 -23 -9 -71 46 -78 90 -11 67 -44 158 -68 187
l-23 29 -2 -32 c-1 -18 3 -39 9 -46 7 -8 8 -25 4 -41 l-7 -28 -13 25 c-8 14
-14 32 -15 41 0 17 -79 113 -87 106 -2 -2 1 -16 7 -31 9 -25 8 -27 -12 -20
-33 10 -88 57 -88 74 1 23 -72 187 -95 217 l-22 27 5 -55 c4 -52 3 -56 -22
-67 -79 -36 -157 5 -197 105 -63 158 -178 372 -201 373 -4 0 -4 -15 -1 -33z
m-128 -191 c118 -133 105 -124 -34 23 -50 52 -74 82 -55 67 19 -16 59 -56 89
-90z m-196 -63 c30 -38 14 -26 -43 34 -42 43 -45 48 -15 22 23 -18 49 -44 58
-56z m48 -50 c13 -16 12 -17 -3 -4 -17 13 -22 21 -14 21 2 0 10 -8 17 -17z
m-484 -65 c-3 -8 -6 -5 -6 6 -1 11 2 17 5 13 3 -3 4 -12 1 -19z m951 -3 c-3
-3 -9 2 -12 12 -6 14 -5 15 5 6 7 -7 10 -15 7 -18z m-1858 -9 c0 -2 -8 -10
-17 -17 -16 -13 -17 -12 -4 4 13 16 21 21 21 13z m767 -18 c-3 -8 -6 -5 -6 6
-1 11 2 17 5 13 3 -3 4 -12 1 -19z m1377 -78 c5 -20 3 -19 -8 5 -7 17 -16 41
-20 55 -5 20 -3 19 8 -5 7 -16 16 -41 20 -55z m-1254 35 c0 -2 -10 -9 -22 -15
-22 -11 -22 -10 -4 4 21 17 26 19 26 11z m-950 -8 c0 -2 -10 -12 -22 -23 l-23
-19 19 23 c18 21 26 27 26 19z m1360 -52 c17 -9 30 -18 30 -21 0 -4 -59 23
-69 32 -10 9 13 3 39 -11z m-1105 -15 c-10 -11 -21 -17 -24 -14 -3 3 3 12 13
20 28 20 32 17 11 -6z m1725 -15 c0 -5 -5 -3 -10 5 -5 8 -10 20 -10 25 0 6 5
3 10 -5 5 -8 10 -19 10 -25z m30 -70 c0 -5 -5 -3 -10 5 -5 8 -10 20 -10 25 0
6 5 3 10 -5 5 -8 10 -19 10 -25z m237 -37 c-3 -8 -6 -5 -6 6 -1 11 2 17 5 13
3 -3 4 -12 1 -19z m-1167 -13 c-7 -8 -17 -15 -22 -15 -6 0 -5 7 2 15 7 8 17
15 22 15 6 0 5 -7 -2 -15z m-1080 -8 c0 -2 -10 -12 -22 -23 l-23 -19 19 23
c18 21 26 27 26 19z m1010 -57 c-6 -11 -13 -20 -16 -20 -2 0 0 9 6 20 6 11 13
20 16 20 2 0 0 -9 -6 -20z m1057 -82 c-3 -7 -5 -2 -5 12 0 14 2 19 5 13 2 -7
2 -19 0 -25z m-714 -38 c34 -7 59 -21 85 -48 l37 -39 -36 -16 c-36 -17 -36
-17 -124 23 -48 22 -92 40 -98 40 -7 0 -34 -11 -62 -24 -27 -14 -51 -23 -53
-21 -7 7 53 75 66 75 6 0 12 4 12 9 0 21 82 22 173 1z m724 -2 c-3 -8 -6 -5
-6 6 -1 11 2 17 5 13 3 -3 4 -12 1 -19z m10 -50 c-3 -8 -6 -5 -6 6 -1 11 2 17
5 13 3 -3 4 -12 1 -19z m-770 -52 c36 -18 38 -20 47 -60 7 -28 7 -28 -31 -22
-88 16 -101 24 -105 67 -2 22 -2 42 0 44 5 5 54 -10 89 -29z m780 12 c-3 -8
-6 -5 -6 6 -1 11 2 17 5 13 3 -3 4 -12 1 -19z m-899 -35 l-3 -36 -85 -23 c-47
-13 -118 -34 -159 -48 -93 -32 -100 -32 -34 2 262 136 249 130 238 112 -3 -5
-2 -10 3 -10 5 0 12 9 15 20 9 35 28 23 25 -17z m-757 -4 c-5 -13 -10 -19 -10
-12 -1 15 10 45 15 40 3 -2 0 -15 -5 -28z m1666 -1 c-3 -8 -6 -5 -6 6 -1 11 2
17 5 13 3 -3 4 -12 1 -19z m-2130 -10 c-3 -8 -6 -5 -6 6 -1 11 2 17 5 13 3 -3
4 -12 1 -19z m2647 -3 c-9 -14 -19 -23 -22 -20 -5 4 26 45 35 45 2 0 -4 -11
-13 -25z m-1184 -14 c-6 -12 -7 -21 -3 -21 4 0 2 -4 -4 -8 -7 -4 -14 -17 -16
-28 -1 -11 -13 -34 -25 -50 l-22 -29 6 35 c11 70 15 80 41 104 31 29 40 27 23
-3z m677 -43 c-2 -13 -4 -5 -4 17 -1 22 1 32 4 23 2 -10 2 -28 0 -40z m-662
32 c-3 -5 -1 -10 4 -10 18 0 12 -14 -15 -34 l-26 -18 13 23 c7 13 14 27 15 32
3 15 4 17 10 17 3 0 2 -4 -1 -10z m852 -22 c-3 -7 -5 -2 -5 12 0 14 2 19 5 13
2 -7 2 -19 0 -25z m-2347 9 c0 -2 -10 -12 -22 -23 l-23 -19 19 23 c18 21 26
27 26 19z m1207 -59 c-18 -29 -58 -98 -87 -153 -29 -55 -73 -133 -98 -173 -36
-59 -47 -70 -56 -58 -6 7 -27 17 -46 20 -68 13 -75 12 -72 -6 6 -34 -103 -18
-111 16 -3 11 -17 54 -32 94 -14 41 -24 76 -22 79 3 2 17 -21 32 -52 14 -31
29 -55 31 -52 3 3 -8 32 -25 66 -17 33 -31 67 -31 74 0 38 79 70 370 152 52
15 113 33 135 40 22 7 42 11 43 9 2 -1 -12 -26 -31 -56z m381 35 c-2 -26 -45
-109 -53 -101 -8 8 14 91 30 108 23 26 25 25 23 -7z m-278 -70 c29 -49 59 -95
65 -103 7 -8 27 -44 46 -80 18 -36 48 -87 65 -115 26 -42 174 -312 174 -318 0
-1 -123 -1 -272 1 -150 1 -328 -1 -395 -5 -68 -5 -123 -8 -123 -7 0 1 11 21
24 45 24 41 65 67 52 32 -5 -12 -3 -13 6 -5 7 6 18 10 23 11 6 0 12 8 14 17 2
10 15 35 29 56 l25 39 -24 25 c-19 20 -21 28 -12 43 6 10 32 58 58 107 26 49
79 141 116 205 38 63 69 121 69 127 0 7 2 12 4 12 2 0 27 -39 56 -87z m39 75
c30 -7 51 -17 51 -25 0 -7 -4 -13 -9 -13 -10 0 -8 -19 4 -55 4 -11 -5 -3 -20
18 -35 46 -44 42 -13 -6 13 -19 28 -43 34 -53 13 -22 12 -24 44 41 14 27 33
51 43 53 16 3 17 -1 12 -31 -10 -53 0 -77 30 -69 13 4 35 17 48 29 l25 21 7
-34 c3 -19 10 -34 15 -34 5 0 25 14 44 31 l35 31 73 -17 c41 -9 79 -19 86 -23
8 -6 -4 -57 -48 -192 -33 -102 -64 -194 -70 -205 -5 -11 -21 -49 -34 -85 l-24
-64 -41 79 c-22 44 -66 123 -97 175 -31 52 -73 124 -94 160 -50 88 -99 169
-137 229 -36 56 -36 56 36 39z m328 -46 c-2 -15 -10 -40 -17 -57 l-14 -30 -4
36 c-4 41 13 93 28 84 5 -3 8 -18 7 -33z m-1977 -9 c-11 -17 -11 -17 -6 0 3
10 6 24 7 30 0 9 2 9 5 0 3 -7 0 -20 -6 -30z m2467 -5 c-3 -7 -5 -2 -5 12 0
14 2 19 5 13 2 -7 2 -19 0 -25z m-1940 -60 c-3 -8 -6 -5 -6 6 -1 11 2 17 5 13
3 -3 4 -12 1 -19z m1950 -85 c-2 -21 -4 -4 -4 37 0 41 2 58 4 38 2 -21 2 -55
0 -75z m-1544 80 c24 -5 25 -7 12 -17 -12 -9 -16 -34 -18 -113 -2 -93 -3 -100
-19 -92 -12 7 -18 6 -18 -2 0 -24 -30 14 -40 50 -6 23 -16 38 -25 38 -9 0 -14
-6 -11 -14 3 -7 2 -13 -3 -13 -13 0 -23 67 -16 102 11 49 52 82 90 72 11 -3
33 -8 48 -11z m-732 -30 c-12 -20 -14 -14 -5 12 4 9 9 14 11 11 3 -2 0 -13 -6
-23z m2869 24 c0 -2 -10 -12 -22 -23 l-23 -19 19 23 c18 21 26 27 26 19z
m-2096 -52 c5 -22 4 -26 -4 -15 -5 8 -10 24 -10 34 0 26 6 18 14 -19z m-424
-17 c0 -6 -6 -5 -15 2 -8 7 -15 14 -15 16 0 2 7 1 15 -2 8 -4 15 -11 15 -16z
m-608 -30 c-8 -8 -9 -4 -5 13 4 13 8 18 11 10 2 -7 -1 -18 -6 -23z m2224 -272
c-9 -116 -16 -235 -16 -264 l0 -53 -30 22 c-16 12 -26 27 -23 32 3 6 1 7 -5 3
-13 -8 -91 44 -92 61 0 7 19 59 41 115 47 118 93 246 117 333 l17 59 3 -49 c2
-27 -4 -144 -12 -259z m-1293 134 c7 0 23 -10 37 -23 14 -12 21 -19 16 -14
-16 12 -26 8 -20 -8 4 -8 3 -15 0 -15 -4 0 -11 11 -16 25 -5 14 -16 25 -23 25
-8 0 -19 17 -25 39 -17 55 -13 64 5 14 8 -24 20 -43 26 -43z m-310 63 c-7 -2
-19 -2 -25 0 -7 3 -2 5 12 5 14 0 19 -2 13 -5z m-25 -48 c-3 -3 -9 2 -12 12
-6 14 -5 15 5 6 7 -7 10 -15 7 -18z m2603 -17 c11 -21 11 -22 -4 -9 -10 7 -17
17 -17 22 0 15 9 10 21 -13z m-282 -135 c30 -95 72 -402 55 -404 -88 -8 -101
2 -44 31 22 11 40 24 40 29 0 5 -22 -3 -49 -17 -45 -24 -58 -39 -105 -114 -10
-18 -25 -28 -40 -28 -28 0 -134 -38 -156 -55 -8 -7 -29 -14 -46 -17 l-31 -4
58 75 c31 42 71 105 87 141 66 145 141 329 163 398 22 68 24 71 36 50 7 -13
22 -51 32 -85z m271 97 c-8 -5 -24 -9 -35 -9 -16 1 -16 2 5 9 35 11 48 11 30
0z m-1910 -26 c0 -2 -9 0 -20 6 -11 6 -20 13 -20 16 0 2 9 0 20 -6 11 -6 20
-13 20 -16z m-495 -2 c-3 -3 -11 0 -18 7 -9 10 -8 11 6 5 10 -3 15 -9 12 -12z
m-99 -23 c3 -6 -5 -3 -20 6 -14 10 -26 19 -26 22 0 7 39 -17 46 -28z m311 16
c0 -8 -4 -15 -9 -15 -10 0 -11 14 -1 23 9 10 10 9 10 -8z m-100 -1 c13 -4 20
-10 17 -15 -3 -5 -11 -6 -17 -2 -7 4 -30 10 -52 14 l-40 6 35 2 c19 0 45 -2
57 -5z m53 -34 c0 -5 -2 -10 -4 -10 -3 0 -8 5 -11 10 -3 6 -1 10 4 10 6 0 11
-4 11 -10z m-36 -10 c19 -7 26 -17 26 -35 0 -24 -2 -26 -37 -19 -21 3 -42 10
-48 15 -5 6 4 7 24 3 25 -5 32 -4 27 4 -4 7 0 12 11 13 10 1 0 7 -22 14 -22 8
-32 14 -23 14 9 1 28 -3 42 -9z m-64 -10 c13 -8 13 -10 -2 -10 -9 0 -20 5 -23
10 -8 13 5 13 25 0z m-873 -72 c-3 -8 -6 -5 -6 6 -1 11 2 17 5 13 3 -3 4 -12
1 -19z m33 -13 c-13 -14 -26 -22 -29 -19 -3 3 5 14 18 25 33 27 39 24 11 -6z
m715 7 c29 -18 32 -18 71 -2 33 14 43 15 57 5 22 -16 7 -30 -43 -39 -26 -4
-31 -3 -20 5 12 8 9 10 -14 6 -18 -3 -43 4 -70 19 -22 13 -34 24 -26 24 8 0
29 -8 45 -18z m182 7 c-14 -8 -22 -8 -30 0 -8 8 -3 11 19 11 25 -1 27 -2 11
-11z m427 -5 c3 -8 2 -12 -4 -9 -6 3 -10 10 -10 16 0 14 7 11 14 -7z m-435
-17 c-2 -1 -13 -9 -24 -17 -19 -14 -19 -14 -6 3 7 9 18 17 24 17 6 0 8 -1 6
-3z m-889 -38 c-12 -16 -25 -28 -28 -25 -5 6 36 56 45 56 3 0 -5 -14 -17 -31z
m913 18 c-18 -7 -33 -15 -33 -19 0 -5 0 -12 0 -17 0 -6 9 -8 20 -6 11 2 20 0
20 -4 0 -5 -13 -8 -28 -8 -22 1 -28 6 -27 22 2 20 38 45 65 44 8 0 0 -6 -17
-12z m57 -1 c0 -3 -4 -8 -10 -11 -5 -3 -10 -1 -10 4 0 6 5 11 10 11 6 0 10 -2
10 -4z m2220 -10 c0 -2 -9 -6 -20 -9 -11 -3 -20 -1 -20 4 0 5 9 9 20 9 11 0
20 -2 20 -4z m-2390 -21 c-14 -8 -36 -14 -50 -14 -22 0 -20 2 10 13 47 18 71
19 40 1z m49 1 c-2 -2 -15 -9 -29 -15 -24 -11 -24 -11 -6 3 16 13 49 24 35 12z
m111 0 c0 -2 -7 -7 -16 -10 -8 -3 -12 -2 -9 4 6 10 25 14 25 6z m254 -21 c-4
-8 -11 -12 -16 -9 -6 4 -5 10 3 15 19 12 19 11 13 -6z m-369 -25 c-3 -5 -12
-10 -18 -10 -7 0 -6 4 3 10 19 12 23 12 15 0z m145 -10 c6 -11 8 -20 6 -20 -3
0 -10 9 -16 20 -6 11 -8 20 -6 20 3 0 10 -9 16 -20z m-90 -1 c12 -8 10 -9 -8
-4 -16 5 -23 3 -21 -7 3 -20 -12 -49 -23 -42 -5 3 -1 12 9 19 16 12 15 14 -15
13 -18 -1 -37 3 -42 8 -6 6 2 9 24 6 18 -2 37 1 40 7 9 14 17 14 36 0z m1080
-15 c17 -4 27 -10 22 -13 -5 -3 -44 -53 -88 -111 -43 -58 -83 -110 -89 -117
-5 -6 -53 -58 -105 -116 l-95 -105 -73 71 c-40 40 -97 101 -127 137 -84 99
-195 239 -195 244 0 12 695 21 750 10z m-1070 -22 c-8 -4 -15 -13 -15 -21 0
-8 -6 -16 -14 -19 -10 -3 -11 0 -5 9 5 8 9 17 10 22 1 4 2 9 3 12 0 3 9 5 19
4 14 0 14 -2 2 -7z m338 -48 c38 -50 39 -56 8 -44 -13 5 -26 6 -29 3 -3 -2 -4
7 -3 21 2 14 0 23 -5 21 -4 -3 -11 4 -14 15 -6 18 -9 19 -23 8 -12 -9 -11 -6
2 10 11 12 22 19 26 15 4 -5 21 -27 38 -49z m863 4 l72 -51 -34 -28 c-19 -15
-81 -56 -139 -90 -58 -34 -150 -89 -205 -121 -101 -60 -104 -59 -35 12 22 23
110 134 175 222 44 59 83 108 88 108 4 0 39 -23 78 -52z m-1073 7 c-3 -3 -9 2
-12 12 -6 14 -5 15 5 6 7 -7 10 -15 7 -18z m120 -20 c-3 -3 -9 2 -12 12 -6 14
-5 15 5 6 7 -7 10 -15 7 -18z m-233 5 c3 -5 -1 -10 -10 -10 -9 0 -13 5 -10 10
3 6 8 10 10 10 2 0 7 -4 10 -10z m50 -20 c-3 -5 -11 -10 -16 -10 -6 0 -7 5 -4
10 3 6 11 10 16 10 6 0 7 -4 4 -10z m225 -34 c-14 -14 -32 3 -17 18 9 10 14
11 19 2 4 -6 3 -15 -2 -20z m168 -93 c38 -49 92 -112 120 -140 28 -29 47 -53
42 -53 -5 0 -11 4 -15 9 -3 6 -48 33 -100 61 -52 28 -98 56 -101 62 -4 7 -2 8
4 4 8 -5 12 0 12 13 0 23 -20 71 -30 71 -4 0 -7 14 -8 30 0 17 1 30 2 30 2 0
35 -39 74 -87z m1807 67 c3 -5 -1 -10 -9 -10 -9 0 -16 5 -16 10 0 6 4 10 9 10
6 0 13 -4 16 -10z m-295 -73 c0 -7 -7 -22 -15 -33 -13 -17 -13 -16 -3 14 13
34 18 40 18 19z m85 -59 c-9 -29 -33 -48 -51 -41 -11 4 -12 9 -3 19 14 17 33
18 23 2 -4 -8 -3 -10 2 -5 5 5 9 12 9 15 0 10 15 32 21 32 3 0 2 -10 -1 -22z
m190 -8 c3 -5 2 -10 -4 -10 -5 0 -13 5 -16 10 -3 6 -2 10 4 10 5 0 13 -4 16
-10z m-285 -22 c0 6 4 12 10 12 16 0 -15 -60 -41 -77 l-24 -17 19 22 c13 15
16 26 9 34 -8 12 -9 19 -4 45 0 4 8 -2 16 -13 8 -11 15 -14 15 -6z m-82 4 c9
-6 6 -12 -13 -20 -26 -12 -34 -32 -13 -32 6 0 8 -3 5 -6 -4 -4 -13 -2 -21 5
-8 7 -25 9 -38 6 -41 -10 -99 -12 -90 -3 12 12 124 58 142 58 8 0 21 -4 28 -8z
m-382 -59 c14 -31 10 -47 -15 -72 -15 -14 -22 -17 -18 -8 3 9 1 19 -4 23 -8 4
-10 -12 -7 -49 1 -31 -1 -52 -6 -47 -14 14 -8 121 9 146 18 28 30 30 41 7z
m499 -4 c-9 -14 3 -11 31 8 25 16 26 16 22 -3 -2 -11 -22 -28 -48 -40 -25 -12
-45 -28 -45 -35 -1 -17 -23 -69 -29 -69 -3 0 0 14 6 30 8 25 7 34 -6 49 -16
18 -15 20 20 49 34 28 63 35 49 11z m-221 -15 c3 -8 2 -12 -4 -9 -6 3 -10 10
-10 16 0 14 7 11 14 -7z m-155 -6 c11 -10 13 -10 7 0 -4 6 -3 12 2 12 10 0 25
-30 19 -36 -1 -2 -20 3 -41 10 -24 8 -33 16 -25 19 21 8 24 8 38 -5z m4 -30
c15 -7 27 -15 27 -18 0 -3 -14 -15 -31 -27 -25 -17 -37 -19 -61 -12 -42 12
-43 15 -8 22 21 5 30 12 30 27 0 23 6 24 43 8z m40 -78 c-2 -2 -8 2 -12 9 -5
8 -15 10 -22 7 -8 -4 -5 0 6 9 18 14 20 14 26 -2 4 -10 5 -20 2 -23z m562 22
c-3 -3 -11 0 -18 7 -9 10 -8 11 6 5 10 -3 15 -9 12 -12z m-808 -32 c-1 -12 -5
-16 -10 -11 -5 5 -6 14 -3 20 11 16 15 13 13 -9z m154 10 c5 0 9 -4 9 -9 0
-13 -28 -7 -43 9 -10 10 -9 12 6 6 10 -3 23 -6 28 -6z m-2243 -30 c13 -12 22
-32 22 -48 -1 -26 -1 -26 -18 8 -13 25 -24 35 -40 34 -22 -1 -28 7 -15 19 11
12 29 8 51 -13z m2292 16 c0 -2 -7 -7 -16 -10 -8 -3 -12 -2 -9 4 6 10 25 14
25 6z m90 -4 c0 -4 -11 -23 -25 -42 -14 -19 -25 -45 -25 -59 0 -19 -3 -22 -12
-13 -23 23 -47 13 -68 -28 -11 -22 -25 -40 -31 -40 -6 0 -1 14 11 30 16 23 21
42 18 70 -3 38 -2 40 46 64 50 26 86 33 86 18z m-316 -36 c-5 -13 -9 -14 -20
-5 -11 9 -12 15 -3 26 15 17 32 2 23 -21z m371 24 c3 -5 2 -10 -4 -10 -5 0
-13 5 -16 10 -3 6 -2 10 4 10 5 0 13 -4 16 -10z m104 -4 c9 -11 6 -12 -14 -8
-14 2 -25 8 -25 13 0 14 26 11 39 -5z m65 -4 c5 -8 -57 -62 -71 -62 -4 0 -16
12 -26 25 -14 20 -15 24 -2 19 8 -3 15 -10 15 -14 0 -4 8 -11 17 -14 10 -4 14
-4 10 0 -4 4 3 18 15 31 23 24 34 28 42 15z m-2620 -10 c2 -4 -7 -8 -22 -9
-24 -2 -24 -1 -7 7 11 5 21 9 22 9 1 1 4 -3 7 -7z m2113 -27 c-7 -7 -16 -11
-21 -8 -4 3 -3 9 4 13 8 5 9 13 4 21 -7 12 -5 12 9 1 13 -11 14 -17 4 -27z
m77 27 c3 -5 -1 -9 -9 -9 -8 0 -12 4 -9 9 3 4 7 8 9 8 2 0 6 -4 9 -8z m-124
-57 c-13 -7 -27 -21 -31 -31 -7 -17 -8 -17 -8 -2 -1 18 -31 15 -31 -3 0 -10
74 -49 112 -58 16 -3 24 -10 20 -17 -9 -13 -95 3 -87 16 3 5 -7 8 -22 7 -24
-2 -28 2 -26 21 2 12 -1 22 -7 22 -5 0 -5 12 1 30 10 26 13 28 26 15 22 -23
27 -18 9 9 -20 31 -3 39 38 18 l30 -14 -24 -13z m596 30 c-1 -5 -7 -19 -14
-30 -12 -19 -13 -18 -9 8 3 21 1 27 -10 23 -8 -3 -11 -2 -8 3 7 13 43 10 41
-4z m-479 -15 c1 -11 -2 -20 -6 -20 -5 0 -23 -3 -40 -6 -26 -6 -30 -4 -25 10
3 9 15 16 25 16 10 0 19 5 19 10 0 19 26 10 27 -10z m59 -14 c-9 -14 -14 -31
-13 -38 2 -7 2 -9 -1 -5 -2 4 -10 3 -18 -4 -8 -6 -11 -15 -8 -20 3 -5 0 -9 -5
-9 -18 0 -13 14 20 58 33 45 52 58 25 18z m259 14 c3 -5 1 -10 -4 -10 -6 0
-11 -4 -11 -9 0 -6 9 -8 20 -6 11 2 39 -3 62 -11 23 -8 48 -12 55 -10 10 4 9
-2 -2 -24 -9 -17 -18 -30 -21 -30 -3 0 -2 5 1 10 4 6 -6 10 -23 10 -16 0 -41
9 -55 20 -17 14 -34 19 -50 15 -24 -6 -32 9 -21 43 4 14 40 16 49 2z m123 -26
c-4 -3 -16 -3 -28 1 -17 5 -19 9 -9 21 11 13 14 13 28 0 8 -9 12 -18 9 -22z
m-684 -73 c28 -28 55 -47 62 -44 8 3 14 0 14 -6 0 -20 -59 -12 -72 9 -7 11
-19 20 -27 20 -11 0 -11 3 -1 15 16 20 6 19 -14 -1 -14 -13 -16 -14 -16 0 0 8
5 18 11 21 6 5 4 12 -8 21 -10 7 -13 14 -8 14 6 0 33 -22 59 -49z m186 45 c0
-3 -4 -8 -10 -11 -5 -3 -10 -1 -10 4 0 6 5 11 10 11 6 0 10 -2 10 -4z m214
-22 c3 -8 2 -12 -4 -9 -6 3 -10 10 -10 16 0 14 7 11 14 -7z m115 -29 c0 -5 -4
-3 -9 5 -5 8 -9 22 -9 30 0 16 17 -16 18 -35z m349 -5 c12 -19 11 -20 -8 -8
-11 7 -20 16 -20 20 0 15 15 8 28 -12z m-618 -20 c0 -5 -4 -10 -10 -10 -5 0
-10 5 -10 10 0 6 5 10 10 10 6 0 10 -4 10 -10z m38 -10 c-7 -11 -15 -15 -17
-9 -2 6 3 15 10 20 20 12 21 11 7 -11z m346 -20 c-27 -40 -43 -47 -52 -20 -3
8 1 11 10 8 8 -4 20 3 27 14 11 18 10 18 -11 7 -13 -6 -31 -20 -42 -31 -10
-11 -24 -17 -32 -14 -8 3 -14 0 -15 -7 0 -9 -2 -9 -6 0 -3 8 -14 11 -31 7 -20
-5 -24 -4 -16 5 8 9 164 68 187 70 4 1 -5 -17 -19 -39z m-519 -10 c-3 -5 -14
-10 -23 -9 -14 0 -13 2 3 9 27 11 27 11 20 0z m-230 -19 c3 -6 -4 -9 -15 -8
-11 1 -20 5 -20 9 0 11 28 10 35 -1z m396 -37 c22 -25 22 -26 3 -16 -12 6 -24
18 -28 27 -8 21 -3 19 25 -11z m199 1 c0 -8 -52 -26 -58 -20 -3 2 6 9 19 14
28 11 39 13 39 6z m58 -22 c-10 -2 -18 -8 -18 -13 0 -5 8 -7 18 -4 9 4 2 -3
-16 -15 -18 -12 -45 -21 -60 -21 -20 0 -23 3 -12 9 8 6 17 8 21 5 4 -2 10 0
14 6 4 6 11 8 16 5 5 -4 9 -1 9 4 0 6 -8 9 -17 7 -35 -7 -83 -28 -83 -36 0 -5
-14 -3 -30 3 l-30 11 24 13 c13 7 33 11 44 8 11 -2 37 3 58 10 22 8 48 14 59
13 17 0 17 -1 3 -5z m-700 -35 c-5 -15 -23 -11 -26 6 -2 11 2 14 13 10 9 -4
14 -11 13 -16z m420 -12 c22 -8 43 -12 47 -8 3 3 3 -1 -1 -11 -3 -9 -14 -17
-25 -17 -10 0 -23 -8 -28 -19 -6 -10 -18 -18 -28 -17 -30 3 -94 47 -86 59 3 7
-6 1 -20 -12 -27 -24 -27 -24 -27 -3 0 22 13 27 53 24 10 -1 26 2 35 8 23 13
33 12 80 -4z m502 -1 c11 -13 10 -14 -4 -9 -9 3 -16 10 -16 15 0 13 6 11 20
-6z m-820 -51 c0 -2 -6 -1 -14 2 -9 3 -16 -2 -19 -13 -3 -15 -4 -15 -3 2 0 11
-3 26 -8 34 -6 8 1 7 18 -4 14 -10 26 -19 26 -21z m-90 -13 c0 -38 -25 -61
-33 -30 -6 24 8 59 23 59 6 0 10 -13 10 -29z m561 -3 c4 -6 23 -10 43 -10 43
0 41 -6 -38 -93 l-55 -60 5 37 c4 33 1 39 -23 52 -16 8 -40 30 -55 50 l-28 35
43 3 c54 4 100 -2 108 -14z m-2016 -40 l50 -52 -51 44 c-44 38 -63 60 -51 60
1 0 25 -23 52 -52z m1585 10 c0 -12 -5 -15 -17 -11 -9 4 -12 8 -6 10 6 2 9 14
6 26 -4 18 -3 19 6 7 6 -8 11 -23 11 -32z m137 28 c0 -8 -4 -14 -8 -13 -4 1
-15 -7 -24 -18 -9 -11 -13 -13 -9 -5 6 14 35 50 39 50 1 0 2 -6 2 -14z m-52
-6 c3 -6 -1 -7 -9 -4 -18 7 -21 14 -7 14 6 0 13 -4 16 -10z m145 -14 c0 -3 -4
-8 -10 -11 -5 -3 -10 -1 -10 4 0 6 5 11 10 11 6 0 10 -2 10 -4z m-260 -23 c29
-25 25 -35 -12 -29 -18 3 -38 0 -45 -5 -7 -6 -17 -7 -24 -3 -8 5 -5 12 12 24
l23 18 -29 -5 c-19 -4 -26 -2 -21 6 11 17 73 13 96 -6z m269 -25 c-19 -37 -71
-99 -77 -93 -3 3 6 18 20 33 14 15 33 39 43 55 21 33 30 36 14 5z m457 -5 c-7
-7 -26 7 -26 19 0 6 6 6 15 -2 9 -7 13 -15 11 -17z m-866 5 c0 -9 4 -8 10 2 5
8 10 10 10 4 0 -11 -29 -41 -31 -33 -6 31 -6 39 2 39 5 0 9 -6 9 -12z m250 -2
c0 -2 -8 -10 -17 -17 -16 -13 -17 -12 -4 4 13 16 21 21 21 13z m-278 -61 c-10
-16 -11 -35 -2 -35 5 0 12 9 15 20 3 11 11 20 16 20 6 0 8 4 4 9 -6 11 13 26
22 17 3 -3 -6 -19 -21 -36 -14 -18 -23 -37 -19 -43 3 -7 3 -9 -2 -5 -10 10
-38 -29 -31 -41 3 -5 -1 -11 -9 -15 -8 -3 -17 -1 -20 4 -9 15 -43 7 -37 -8 4
-12 -2 -14 -27 -10 -18 3 -36 -1 -42 -8 -6 -7 -17 -10 -25 -7 -10 3 6 18 45
44 33 22 64 39 70 39 9 0 18 16 19 35 0 5 10 12 20 16 15 6 19 14 16 31 -4 21
-4 21 5 3 4 -11 6 -24 3 -30z m88 35 c0 -5 -5 -10 -11 -10 -5 0 -7 5 -4 10 3
6 8 10 11 10 2 0 4 -4 4 -10z m106 -5 c16 -12 17 -16 4 -24 -8 -5 -19 -7 -25
-4 -5 4 -7 2 -2 -2 4 -5 0 -16 -9 -26 -12 -13 -21 -16 -34 -9 -10 5 -20 6 -24
3 -3 -3 -6 -2 -6 4 0 5 -13 8 -30 5 -40 -6 -38 2 12 38 45 33 84 38 114 15z
m-1567 -29 c9 -11 9 -16 -1 -22 -7 -4 -10 -4 -6 1 4 4 3 14 -3 22 -6 7 -9 13
-6 13 2 0 10 -6 16 -14z m1281 -21 c0 -16 -9 -19 -34 -9 -25 9 -19 24 9 24 16
0 25 -6 25 -15z m324 -45 c-10 -16 -20 -28 -22 -26 -4 5 28 56 35 56 2 0 -4
-13 -13 -30z m99 3 c-7 -19 -39 -53 -50 -53 -3 0 4 11 17 25 13 14 19 25 14
25 -5 0 -2 5 6 10 20 13 20 13 13 -7z m201 -14 c-8 -13 -21 -11 -27 5 -4 10 0
12 14 9 10 -3 16 -9 13 -14z m-49 2 c-3 -5 -1 -12 5 -16 6 -4 8 -10 5 -15 -7
-12 -65 -30 -65 -21 0 5 14 11 31 15 25 5 29 9 20 19 -6 8 -8 17 -4 20 9 10
15 8 8 -2z m-303 -24 c-12 -13 -22 -32 -22 -43 0 -11 -6 -26 -12 -34 -11 -12
-10 -12 7 0 11 8 30 23 43 34 12 11 22 16 22 12 0 -18 -46 -61 -65 -61 -11 0
-24 -3 -30 -6 -20 -13 -67 -20 -60 -9 3 5 14 10 24 10 21 0 58 37 47 47 -4 4
-20 2 -36 -4 -26 -10 -28 -9 -18 6 7 11 19 16 33 14 15 -3 29 4 46 26 13 17
28 31 33 31 5 0 0 -10 -12 -23z m-237 -17 c3 -5 1 -10 -4 -10 -6 0 -11 5 -11
10 0 6 2 10 4 10 3 0 8 -4 11 -10z m475 -10 c0 -5 -8 -10 -17 -10 -15 0 -16 2
-3 10 19 12 20 12 20 0z m-47 -70 c-71 -46 -78 -48 -63 -19 7 12 18 18 26 15
8 -3 14 -1 14 4 0 6 -6 10 -12 10 -27 1 39 29 67 29 28 1 26 -2 -32 -39z
m-1595 23 c-10 -2 -26 -2 -35 0 -10 3 -2 5 17 5 19 0 27 -2 18 -5z m1822 -8
c11 -13 10 -14 -4 -9 -9 3 -16 10 -16 15 0 13 6 11 20 -6z m-1767 -32 c-7 -2
-19 -2 -25 0 -7 3 -2 5 12 5 14 0 19 -2 13 -5z m162 -13 c17 -19 17 -19 -9 -7
-14 7 -26 15 -26 20 0 13 17 7 35 -13z m229 -5 c-4 -8 -12 -15 -20 -15 -8 0
-14 7 -14 15 0 8 9 15 20 15 13 0 18 -5 14 -15z m-129 -39 c22 -33 45 -40 61
-19 12 17 13 16 11 -4 0 -12 -5 -19 -9 -17 -14 9 -8 -9 9 -29 17 -18 17 -18
-9 -6 -15 6 -25 17 -21 22 4 6 0 8 -11 4 -9 -4 -15 -3 -12 2 4 5 -11 23 -32
40 -26 21 -32 30 -20 31 10 0 25 -11 33 -24z m866 -7 c-18 -11 -36 -18 -39
-14 -9 8 31 34 53 35 15 0 12 -5 -14 -21z m-291 1 c0 -11 -2 -11 -37 -15 -25
-2 -31 10 -10 18 21 9 47 7 47 -3z m320 -25 c0 -7 6 -16 13 -18 8 -4 7 -6 -3
-6 -16 -1 -43 33 -33 43 9 8 23 -3 23 -19z m435 15 c3 -5 1 -10 -4 -10 -6 0
-11 5 -11 10 0 6 2 10 4 10 3 0 8 -4 11 -10z m-531 -25 c-4 -8 -8 -15 -10 -15
-2 0 -4 7 -4 15 0 8 4 15 10 15 5 0 7 -7 4 -15z m211 -5 c3 -5 -1 -10 -9 -10
-8 0 -18 5 -21 10 -3 6 1 10 9 10 8 0 18 -4 21 -10z m-557 -12 c-3 -7 6 -21
19 -31 52 -41 1 -51 -70 -14 -36 20 -42 26 -33 40 13 21 90 25 84 5z m518 0
c4 -7 4 -10 -1 -6 -4 4 -14 3 -22 -3 -13 -11 -19 2 -6 14 10 11 21 8 29 -5z
m-632 -16 c-6 -4 -14 -17 -18 -29 -4 -13 -12 -23 -17 -23 -6 0 -5 8 1 21 15
27 4 37 -23 20 -20 -13 -21 -13 -8 2 7 10 28 17 45 17 17 0 26 -4 20 -8z m412
-17 c-15 -8 -33 -15 -40 -15 -16 0 36 28 54 29 8 0 2 -6 -14 -14z m-156 -30
c0 -11 -19 -4 -41 15 l-24 21 33 -16 c17 -8 32 -18 32 -20z m-340 15 c0 -5 -5
-10 -11 -10 -5 0 -7 5 -4 10 3 6 8 10 11 10 2 0 4 -4 4 -10z m136 -5 c18 -13
16 -14 -25 -15 -37 0 -42 2 -31 15 16 19 31 19 56 0z m770 -12 c-7 -7 -26 7
-26 19 0 6 6 6 15 -2 9 -7 13 -15 11 -17z m-799 -75 c-3 -8 -6 -5 -6 6 -1 11
2 17 5 13 3 -3 4 -12 1 -19z m433 2 c0 -5 -2 -10 -4 -10 -3 0 -8 5 -11 10 -3
6 -1 10 4 10 6 0 11 -4 11 -10z m-167 -30 c-3 -11 -7 -20 -9 -20 -2 0 -4 9 -4
20 0 11 4 20 9 20 5 0 7 -9 4 -20z"/>
<path d="M2751 4030 c-1 -25 12 -37 49 -44 26 -5 31 -4 20 3 -8 6 -23 11 -33
11 -10 0 -22 10 -27 23 -5 12 -9 15 -9 7z"/>
<path d="M2593 3987 c-17 -7 -35 -16 -40 -21 -5 -5 0 -6 10 -3 11 4 30 10 43
13 13 3 24 10 24 15 0 5 -1 9 -2 8 -2 0 -17 -6 -35 -12z"/>
<path d="M2435 3865 c-39 -14 -40 -14 -5 -8 41 7 82 22 60 22 -8 0 -33 -7 -55
-14z"/>
<path d="M2203 3798 c-6 -11 29 -10 46 1 10 7 6 9 -13 8 -16 -1 -30 -5 -33 -9z"/>
<path d="M2455 3580 c-9 -16 -13 -30 -11 -30 3 0 12 14 21 30 9 17 13 30 11
30 -3 0 -12 -13 -21 -30z"/>
<path d="M2598 3614 c-16 -8 -29 -21 -29 -29 -1 -8 -2 -20 -3 -26 -1 -7 9 -15
21 -20 17 -6 25 -3 37 16 10 15 22 22 31 19 26 -10 16 -43 -26 -86 -48 -50
-71 -91 -63 -113 5 -13 21 -15 88 -13 l81 3 0 30 c0 28 -2 30 -38 30 -20 0
-37 3 -37 6 0 3 12 16 26 30 59 55 65 111 17 149 -30 24 -67 25 -105 4z"/>
<path d="M2798 3618 c-38 -29 -52 -152 -23 -208 21 -41 96 -58 130 -30 39 33
38 164 -2 218 -23 31 -77 41 -105 20z m62 -114 c0 -56 -3 -74 -14 -74 -24 0
-37 125 -14 148 21 21 28 2 28 -74z"/>
<path d="M2988 3293 c12 -2 30 -2 40 0 9 3 -1 5 -23 4 -22 0 -30 -2 -17 -4z"/>
<path d="M3290 3759 c-7 -11 -10 -23 -7 -25 2 -2 9 7 15 21 14 30 7 33 -8 4z"/>
<path d="M2890 3765 c0 -2 9 -19 20 -37 23 -39 27 -30 5 12 -14 27 -25 38 -25
25z"/>
<path d="M3080 3455 c0 -5 10 -21 21 -35 13 -17 17 -18 10 -5 -17 33 -31 51
-31 40z"/>
<path d="M3141 3367 c-13 -21 -12 -21 5 -5 10 10 16 20 13 22 -3 3 -11 -5 -18
-17z"/>
<path d="M3296 3554 c-10 -37 -2 -39 11 -4 6 17 8 30 3 30 -4 0 -11 -12 -14
-26z"/>
<path d="M3311 3394 c0 -11 3 -14 6 -6 3 7 2 16 -1 19 -3 4 -6 -2 -5 -13z"/>
<path d="M3210 3315 c-6 -15 -13 -32 -16 -36 -3 -5 -1 -9 4 -9 12 0 37 58 29
67 -4 3 -11 -7 -17 -22z"/>
<path d="M3180 3245 c0 -2 10 -10 23 -16 20 -11 21 -11 8 4 -13 16 -31 23 -31
12z"/>
<path d="M1945 3360 c-3 -5 -1 -10 4 -10 6 0 11 5 11 10 0 6 -2 10 -4 10 -3 0
-8 -4 -11 -10z"/>
<path d="M2793 3213 c9 -2 25 -2 35 0 9 3 1 5 -18 5 -19 0 -27 -2 -17 -5z"/>
<path d="M2918 3213 c12 -2 32 -2 45 0 12 2 2 4 -23 4 -25 0 -35 -2 -22 -4z"/>
<path d="M2400 3192 c0 -4 14 -21 32 -38 l31 -29 -22 32 c-23 35 -41 50 -41
35z"/>
<path d="M2480 3101 c0 -5 7 -15 17 -22 15 -13 15 -12 4 9 -12 23 -21 28 -21
13z"/>
<path d="M2917 3014 c-11 -14 -17 -27 -15 -30 3 -2 14 10 27 26 12 17 18 30
14 30 -4 0 -16 -12 -26 -26z"/>
<path d="M3180 3174 c0 -8 32 -33 43 -34 5 0 5 4 2 10 -8 13 -45 33 -45 24z"/>
<path d="M3130 3159 c0 -5 5 -7 10 -4 6 3 10 8 10 11 0 2 -4 4 -10 4 -5 0 -10
-5 -10 -11z"/>
<path d="M3065 3070 c-3 -5 -1 -10 4 -10 6 0 11 5 11 10 0 6 -2 10 -4 10 -3 0
-8 -4 -11 -10z"/>
<path d="M2440 3033 c0 -13 29 -38 35 -31 3 3 -4 13 -15 23 -11 10 -20 13 -20
8z"/>
<path d="M3491 2842 c-8 -15 -7 -23 3 -31 10 -8 16 -9 21 -1 6 9 -1 14 -17 11
-13 -2 -9 6 9 20 11 10 14 10 9 2 -4 -8 -2 -13 4 -13 14 0 8 22 -7 27 -7 3
-16 -5 -22 -15z"/>
<path d="M3869 2597 c7 -9 18 -14 23 -11 6 4 14 0 19 -7 6 -11 11 -11 21 -1 9
9 8 12 -7 14 -35 2 -40 3 -55 13 -13 8 -13 7 -1 -8z"/>
<path d="M3106 2282 c-2 -4 -1 -14 4 -22 7 -11 9 -9 7 8 -1 24 -3 26 -11 14z"/>
<path d="M3645 2265 c38 -14 39 -14 8 -12 -18 2 -30 0 -27 -5 3 -4 12 -8 19
-8 9 0 12 -6 8 -16 -3 -9 -9 -11 -12 -6 -3 5 -17 15 -31 22 -17 8 -12 1 13
-20 31 -26 38 -38 34 -58 -4 -23 -3 -23 22 9 14 18 36 42 48 53 28 24 29 36 3
29 -11 -3 -17 -10 -13 -17 3 -6 -5 -1 -18 11 -14 13 -40 25 -59 28 l-35 5 40
-15z m48 -45 c3 -11 0 -18 -7 -17 -6 1 -10 -4 -8 -12 3 -12 0 -12 -12 -2 -17
14 -11 36 6 25 7 -5 9 -1 5 9 -3 10 -3 17 2 17 5 0 11 -9 14 -20z"/>
<path d="M2565 1790 c28 -12 37 -12 30 0 -3 6 -16 10 -28 9 -21 0 -21 -1 -2
-9z"/>
<path d="M2940 2593 c-7 -104 -4 -126 13 -129 12 -1 17 2 13 11 -2 7 4 15 14
18 22 6 20 35 -4 52 -9 7 -16 21 -14 31 2 9 -3 19 -9 21 -7 3 -13 1 -13 -4z"/>
<path d="M2891 2514 c-26 -12 -31 -18 -22 -27 8 -8 18 -5 38 16 31 31 31 31
-16 11z"/>
<path d="M2990 2480 c-13 -8 -12 -10 3 -10 9 0 17 5 17 10 0 12 -1 12 -20 0z"/>
<path d="M2037 2024 c6 -15 23 -19 23 -5 0 5 -7 11 -14 14 -10 4 -13 1 -9 -9z"/>
<path d="M3085 2020 c-27 -30 -12 -34 15 -5 13 14 19 25 13 25 -5 0 -18 -9
-28 -20z"/>
<path d="M3340 1979 c0 -5 5 -7 10 -4 6 3 10 8 10 11 0 2 -4 4 -10 4 -5 0 -10
-5 -10 -11z"/>
<path d="M3277 1914 c-27 -29 -45 -54 -41 -54 11 0 94 89 94 101 0 13 -1 13
-53 -47z"/>
<path d="M2700 1930 c-9 -6 -10 -10 -3 -10 6 0 15 5 18 10 8 12 4 12 -15 0z"/>
<path d="M2323 1913 c9 -14 47 -24 47 -12 0 5 -4 9 -9 9 -5 0 -17 3 -27 7 -11
4 -15 3 -11 -4z"/>
<path d="M2455 1880 c-3 -5 -1 -10 4 -10 6 0 11 5 11 10 0 6 -2 10 -4 10 -3 0
-8 -4 -11 -10z"/>
<path d="M3180 1870 c-8 -5 -12 -11 -9 -14 2 -3 11 -1 19 4 8 5 12 11 9 14 -2
3 -11 1 -19 -4z"/>
<path d="M2370 1822 c0 -4 10 -9 22 -9 18 -2 20 0 8 7 -18 12 -30 13 -30 2z"/>
</g>
</svg>
